<svg width="250" height="40" viewBox="0 0 250 40" fill="none" xmlns="http://www.w3.org/2000/svg">
<path d="M0 2C0 0.895431 0.895431 0 2 0H248C249.105 0 250 0.895431 250 2V38C250 39.1046 249.105 40 248 40H2C0.895435 40 0 39.1046 0 38V2Z" fill="#37133A"/>
<path d="M0 2C0 0.895432 0.89543 0 2 0H247C248.105 0 249 0.89543 249 2V35C249 36.1046 248.105 37 247 37H2C0.895434 37 0 36.1046 0 35V2Z" fill="white"/>
<path d="M5.75172 3.92537L243.455 2.33252L245.82 3.39504C246.538 3.71777 247 4.43192 247 5.21935V19.4557V32.986C247 34.0906 246.105 34.986 245 34.986H6.62835C6.06959 34.986 5.5363 34.7523 5.15764 34.3414L3 32.0001L5.75172 3.92537Z" fill="#1542AB"/>
<path d="M3 4.33252C3 3.22795 3.89543 2.33252 5 2.33252H243C244.105 2.33252 245 3.22795 245 4.33252V31.4311C245 32.5357 244.105 33.4311 243 33.4311H5C3.89544 33.4311 3 32.5357 3 31.4311V4.33252Z" fill="url(#paint0_linear_2005_309)"/>
<path d="M3 4.33252C3 3.22795 3.89543 2.33252 5 2.33252H243C244.105 2.33252 245 3.22795 245 4.33252V31.4311C245 32.5357 244.105 33.4311 243 33.4311H5C3.89544 33.4311 3 32.5357 3 31.4311V4.33252Z" fill="url(#paint1_linear_2005_309)"/>
<path d="M5.97088 3.60976L243.173 2L245.775 3.0947C246.517 3.40678 247 4.1333 247 4.93828V19.3049V33C247 34.1046 246.105 35 245 35H6.80846C6.27262 35 5.75919 34.785 5.38326 34.4031L3 31.9824L5.97088 3.60976Z" fill="#734E15"/>
<rect x="3" y="2" width="242" height="31" rx="2" fill="url(#paint2_linear_2005_309)"/>
<defs>
<linearGradient id="paint0_linear_2005_309" x1="115" y1="2.33252" x2="115" y2="33.4311" gradientUnits="userSpaceOnUse">
<stop stop-color="#68C4F7"/>
<stop offset="1" stop-color="#0441D7"/>
</linearGradient>
<linearGradient id="paint1_linear_2005_309" x1="115" y1="2.33252" x2="115" y2="33.4311" gradientUnits="userSpaceOnUse">
<stop stop-color="#8F00FF"/>
<stop offset="1" stop-color="#192CFF"/>
</linearGradient>
<linearGradient id="paint2_linear_2005_309" x1="124" y1="2" x2="124" y2="33" gradientUnits="userSpaceOnUse">
<stop stop-color="#FFF636"/>
<stop offset="1" stop-color="#E49652"/>
</linearGradient>
</defs>
</svg>
