<svg width="111" height="40" viewBox="0 0 111 40" fill="none" xmlns="http://www.w3.org/2000/svg">
<path d="M0 2C0 0.895431 0.895431 0 2 0H108.786C109.89 0 110.786 0.895431 110.786 2V38C110.786 39.1046 109.89 40 108.786 40H2C0.895431 40 0 39.1046 0 38V2Z" fill="#37133A"/>
<path d="M0 2C0 0.895432 0.895431 0 2 0H107.371C108.476 0 109.371 0.89543 109.371 2V35C109.371 36.1046 108.476 37 107.371 37H2C0.895434 37 0 36.1046 0 35V2Z" fill="white"/>
<path d="M2.7113 3.92537L106.286 2.33252L107.337 3.33431C107.733 3.71177 107.957 4.23498 107.957 4.78208V19.4557V32.986C107.957 34.0906 107.062 34.986 105.957 34.986H4.02299C3.22654 34.986 2.50599 34.5135 2.18863 33.783L1.41406 32.0001L2.7113 3.92537Z" fill="#1542AB"/>
<rect x="1.41406" y="2.33252" width="105.6" height="31.0986" rx="2" fill="url(#paint0_linear_289_1959)"/>
<defs>
<linearGradient id="paint0_linear_289_1959" x1="54.2141" y1="2.33252" x2="54.2141" y2="33.4311" gradientUnits="userSpaceOnUse">
<stop stop-color="#8F00FF"/>
<stop offset="1" stop-color="#192CFF"/>
</linearGradient>
</defs>
</svg>
