<svg width="111" height="40" viewBox="0 0 111 40" fill="none" xmlns="http://www.w3.org/2000/svg">
<path d="M0.214355 2C0.214355 0.895431 1.10979 0 2.21436 0H109C110.105 0 111 0.895431 111 2V38C111 39.1046 110.105 40 109 40H2.21436C1.10979 40 0.214355 39.1046 0.214355 38V2Z" fill="#37133A"/>
<path d="M0.214355 2C0.214355 0.895432 1.10979 0 2.21436 0H107.586C108.69 0 109.586 0.89543 109.586 2V35C109.586 36.1046 108.69 37 107.586 37H2.21436C1.10979 37 0.214355 36.1046 0.214355 35V2Z" fill="white"/>
<path d="M2.92566 3.92537L106.5 2.33252L107.551 3.33431C107.947 3.71177 108.171 4.23498 108.171 4.78208V19.4557V32.986C108.171 34.0906 107.276 34.986 106.171 34.986H4.23735C3.4409 34.986 2.72035 34.5135 2.40299 33.783L1.62842 32.0001L2.92566 3.92537Z" fill="#734E15"/>
<rect x="1.62842" y="2.33252" width="105.6" height="31.0986" rx="2" fill="url(#paint0_linear_289_1983)"/>
<defs>
<linearGradient id="paint0_linear_289_1983" x1="54.4284" y1="2.33252" x2="54.4284" y2="33.4311" gradientUnits="userSpaceOnUse">
<stop stop-color="#FFF636"/>
<stop offset="1" stop-color="#E49652"/>
</linearGradient>
</defs>
</svg>
