<svg width="489" height="40" viewBox="0 0 489 40" fill="none" xmlns="http://www.w3.org/2000/svg">
<path d="M0 2C0 0.895431 0.89543 0 2 0H487C488.105 0 489 0.895431 489 2V38C489 39.1046 488.105 40 487 40H1.99999C0.895417 40 0 39.1046 0 38V2Z" fill="#37133A"/>
<path d="M0 2C0 0.895432 0.895431 0 2 0H483C484.105 0 485 0.89543 485 2V35C485 36.1046 484.105 37 483 37H1.99999C0.895419 37 0 36.1046 0 35V2Z" fill="white"/>
<path d="M8.83218 3.59285L474.486 2L480.415 3.2568C481.339 3.45272 482 4.26859 482 5.21332V19.1232V32.6535C482 33.7581 481.105 34.6535 480 34.6535H9.31439C8.99746 34.6535 8.68506 34.5782 8.40295 34.4338L3 31.6676L8.83218 3.59285Z" fill="#734E15"/>
<rect x="3" y="2" width="474.761" height="31.0986" rx="2" fill="url(#paint0_linear_2001_48)"/>
<defs>
<linearGradient id="paint0_linear_2001_48" x1="240.38" y1="2" x2="240.38" y2="33.0986" gradientUnits="userSpaceOnUse">
<stop stop-color="#FFF636"/>
<stop offset="1" stop-color="#E49652"/>
</linearGradient>
</defs>
</svg>
