<svg width="489" height="41" viewBox="0 0 489 41" fill="none" xmlns="http://www.w3.org/2000/svg">
<path d="M0 2.6676C0 1.56303 0.89543 0.667603 2 0.667603H487C488.105 0.667603 489 1.56303 489 2.6676V38.6676C489 39.7722 488.105 40.6676 487 40.6676H1.99999C0.895417 40.6676 0 39.7722 0 38.6676V2.6676Z" fill="#37133A"/>
<path d="M0 2.6676C0 1.56303 0.895431 0.667603 2 0.667603H483C484.105 0.667603 485 1.56303 485 2.6676V35.6676C485 36.7722 484.105 37.6676 483 37.6676H1.99999C0.895419 37.6676 0 36.7722 0 35.6676V2.6676Z" fill="white"/>
<path d="M5.75172 4.59285L478.455 3L480.82 4.06252C481.538 4.38525 482 5.0994 482 5.88683V20.1232V33.6535C482 34.7581 481.105 35.6535 480 35.6535H6.62835C6.06959 35.6535 5.5363 35.4198 5.15764 35.0089L3 32.6676L5.75172 4.59285Z" fill="#1542AB"/>
<path d="M3 5C3 3.89543 3.89543 3 5 3H478C479.105 3 480 3.89543 480 5V32.0986C480 33.2032 479.105 34.0986 478 34.0986H5.00001C3.89544 34.0986 3 33.2032 3 32.0986V5Z" fill="url(#paint0_linear_2001_46)"/>
<path d="M3 5C3 3.89543 3.89543 3 5 3H478C479.105 3 480 3.89543 480 5V32.0986C480 33.2032 479.105 34.0986 478 34.0986H5.00001C3.89544 34.0986 3 33.2032 3 32.0986V5Z" fill="url(#paint1_linear_2001_46)"/>
<rect x="3" y="3" width="477" height="31" rx="2" fill="url(#paint2_linear_2001_46)"/>
<defs>
<linearGradient id="paint0_linear_2001_46" x1="115" y1="3" x2="115" y2="34.0986" gradientUnits="userSpaceOnUse">
<stop stop-color="#68C4F7"/>
<stop offset="1" stop-color="#0441D7"/>
</linearGradient>
<linearGradient id="paint1_linear_2001_46" x1="115" y1="3" x2="115" y2="34.0986" gradientUnits="userSpaceOnUse">
<stop stop-color="#8F00FF"/>
<stop offset="1" stop-color="#192CFF"/>
</linearGradient>
<linearGradient id="paint2_linear_2001_46" x1="241.5" y1="3" x2="241.5" y2="34" gradientUnits="userSpaceOnUse">
<stop stop-color="#CF93FE"/>
<stop offset="1" stop-color="#5E6BFF"/>
</linearGradient>
</defs>
</svg>
