<svg width="489" height="40" viewBox="0 0 489 40" fill="none" xmlns="http://www.w3.org/2000/svg">
<path d="M0 2C0 0.895431 0.895431 0 2 0H487C488.105 0 489 0.895431 489 2V38C489 39.1046 488.105 40 487 40H1.99999C0.895417 40 0 39.1046 0 38V2Z" fill="#37133A"/>
<path d="M0 2C0 0.895432 0.895431 0 2 0H483C484.105 0 485 0.89543 485 2V35C485 36.1046 484.105 37 483 37H1.99999C0.895419 37 0 36.1046 0 35V2Z" fill="white"/>
<path d="M5.75151 3.92525L478.455 2.3324L480.82 3.39492C481.538 3.71765 482 4.4318 482 5.21923V19.4556V32.9859C482 34.0905 481.105 34.9859 480 34.9859H6.62815C6.06938 34.9859 5.5361 34.7522 5.15743 34.3413L2.99979 32L5.75151 3.92525Z" fill="#1542AB"/>
<path d="M3 4.3324C3 3.22783 3.89543 2.3324 5 2.3324H478C479.105 2.3324 480 3.22783 480 4.3324V31.431C480 32.5356 479.105 33.431 478 33.431H5.00001C3.89544 33.431 3 32.5356 3 31.431V4.3324Z" fill="url(#paint0_linear_289_1566)"/>
<path d="M3 4.3324C3 3.22783 3.89543 2.3324 5 2.3324H478C479.105 2.3324 480 3.22783 480 4.3324V31.431C480 32.5356 479.105 33.431 478 33.431H5.00001C3.89544 33.431 3 32.5356 3 31.431V4.3324Z" fill="url(#paint1_linear_289_1566)"/>
<defs>
<linearGradient id="paint0_linear_289_1566" x1="115" y1="2.3324" x2="115" y2="33.431" gradientUnits="userSpaceOnUse">
<stop stop-color="#68C4F7"/>
<stop offset="1" stop-color="#0441D7"/>
</linearGradient>
<linearGradient id="paint1_linear_289_1566" x1="115" y1="2.3324" x2="115" y2="33.431" gradientUnits="userSpaceOnUse">
<stop stop-color="#8F00FF"/>
<stop offset="1" stop-color="#192CFF"/>
</linearGradient>
</defs>
</svg>
